<svg width="100" height="100" viewBox="0 0 100 100" fill="none" xmlns="http://www.w3.org/2000/svg">
<rect width="100" height="100" fill="#101214"/>
<path d="M69.6592 23.4132L69.6689 23.6534L70.3193 40.8048L70.3291 41.0646H68.5723L68.5254 40.8741C67.3415 36.004 65.3304 32.378 62.5098 29.9698C59.6918 27.564 56.0412 26.3517 51.5361 26.3517C45.8242 26.3517 41.1586 28.26 37.5195 32.0724L37.1709 32.4474C33.5426 36.4492 31.7081 42.3402 31.708 50.1622C31.708 57.2111 33.7249 62.8068 37.7354 66.9777C41.7521 71.1551 46.6723 73.2413 52.5117 73.2413C58.3339 73.2412 64.0189 70.5463 69.5693 65.1036L69.7461 64.9298L71.4658 66.6495L71.3164 66.8253C65.7964 73.3291 58.8174 76.587 50.3975 76.587C42.7555 76.5869 36.5387 74.2369 31.7705 69.5236C26.9975 64.8054 24.624 58.2867 24.624 50.0001C24.624 42.139 27.1107 35.7311 32.0957 30.8009L32.0967 30.7999C37.1321 25.8741 43.4011 23.4132 50.8857 23.4132C53.2355 23.4132 55.5051 23.6864 57.6934 24.2335H57.6943L64.3262 25.9318C65.2535 25.9277 65.9665 25.7267 66.4883 25.3507C67.0118 24.9733 67.3707 24.4013 67.5498 23.6085L67.5938 23.4132H69.6592Z" fill="white" stroke="white" stroke-width="0.5"/>
</svg>
