<svg width="104" height="20" viewBox="0 0 104 20" fill="none" xmlns="http://www.w3.org/2000/svg">
<path d="M12.96 5.232C12.256 2.336 10.56 0.888 7.872 0.888C6.112 0.888 4.68 1.496 3.576 2.712C2.488 3.912 1.944 5.672 1.944 7.992C1.944 10.088 2.544 11.76 3.744 13.008C4.944 14.256 6.416 14.88 8.16 14.88C9.904 14.88 11.6 14.072 13.248 12.456L13.656 12.864C12.04 14.768 10 15.72 7.536 15.72C5.296 15.72 3.48 15.032 2.088 13.656C0.696 12.28 0 10.376 0 7.944C0 5.64 0.728 3.768 2.184 2.328C3.656 0.888 5.488 0.167999 7.68 0.167999C8.368 0.167999 9.032 0.248 9.672 0.408L11.64 0.912C12.216 0.912 12.56 0.664 12.672 0.167999H13.152L13.344 5.232H12.96Z" fill="white"/>
<path d="M25.3829 14.496C24.7589 15.248 24.0949 15.624 23.3909 15.624C22.5429 15.624 22.1189 15.032 22.1189 13.848C20.7589 15.032 19.5989 15.624 18.6389 15.624C17.9989 15.624 17.4389 15.416 16.9589 15C16.4949 14.584 16.2629 14.016 16.2629 13.296C16.2629 12.416 16.6149 11.68 17.3189 11.088C18.0229 10.496 19.6149 9.72 22.0949 8.76V7.44C22.0949 6.128 21.4469 5.472 20.1509 5.472C19.7349 5.472 19.3349 5.592 18.9509 5.832C18.5669 6.056 18.3749 6.352 18.3749 6.72C18.3749 6.944 18.3989 7.208 18.4469 7.512C18.4629 7.576 18.4709 7.632 18.4709 7.68C18.4709 8.24 18.1909 8.52 17.6309 8.52C17.0069 8.52 16.6949 8.2 16.6949 7.56C16.6949 6.904 17.0309 6.32 17.7029 5.808C18.3909 5.296 19.2709 5.04 20.3429 5.04C21.4309 5.04 22.2309 5.28 22.7429 5.76C23.2709 6.224 23.5349 7.184 23.5349 8.64V13.032C23.5349 14.008 23.8069 14.496 24.3509 14.496C24.6069 14.496 24.9509 14.32 25.3829 13.968V14.496ZM22.0949 9.288C19.3909 10.184 18.0389 11.28 18.0389 12.576C18.0389 13.856 18.5589 14.496 19.5989 14.496C20.2389 14.496 20.8149 14.336 21.3269 14.016C21.8389 13.68 22.0949 13.216 22.0949 12.624V9.288Z" fill="white"/>
<path d="M32.1907 5.88H29.7187V12.432C29.7187 13.792 30.1667 14.472 31.0627 14.472C31.5587 14.472 32.0147 14.208 32.4307 13.68L32.7187 13.92C32.1107 15.056 31.2307 15.624 30.0787 15.624C28.8307 15.624 28.2067 14.672 28.2067 12.768V5.88H26.8147L26.7187 5.736C26.7187 5.656 26.7907 5.576 26.9347 5.496C27.8307 4.984 28.4547 4.384 28.8067 3.696C29.1107 3.104 29.3507 2.648 29.5267 2.328C29.6547 2.328 29.7187 2.424 29.7187 2.616V5.352H32.1907V5.88Z" fill="white"/>
<path d="M42.9765 12.096C41.8565 14.448 40.3525 15.624 38.4645 15.624C37.3125 15.624 36.3205 15.168 35.4885 14.256C34.6565 13.344 34.2405 12.128 34.2405 10.608C34.2405 8.944 34.7285 7.6 35.7045 6.576C36.6805 5.552 37.8805 5.04 39.3045 5.04C40.1045 5.04 40.8645 5.256 41.5845 5.688C42.3045 6.104 42.6645 6.64 42.6645 7.296C42.6645 7.936 42.3525 8.256 41.7285 8.256C41.2485 8.256 40.9205 7.92 40.7445 7.248L40.6005 6.744C40.3765 6.024 39.8085 5.664 38.8965 5.664C38.0485 5.664 37.2885 6.056 36.6165 6.84C35.9445 7.608 35.6085 8.56 35.6085 9.696C35.6085 10.992 35.9525 12.064 36.6405 12.912C37.3445 13.744 38.1925 14.16 39.1845 14.16H39.4485C40.6165 14.064 41.6885 13.304 42.6645 11.88L42.9765 12.096Z" fill="white"/>
<path d="M55.6643 15.408H50.8883V15.12C51.6563 15.04 52.1363 14.848 52.3283 14.544C52.5203 14.24 52.6163 13.76 52.6163 13.104V8.64C52.6163 6.976 51.9683 6.144 50.6723 6.144C49.9203 6.144 49.0403 6.72 48.0323 7.872V13.104C48.0323 13.776 48.1363 14.264 48.3443 14.568C48.5523 14.856 49.0243 15.04 49.7603 15.12V15.408H44.8883V15.12C45.6403 15.008 46.1043 14.808 46.2803 14.52C46.4563 14.216 46.5443 13.744 46.5443 13.104V2.496C46.5443 1.712 46.1683 1.32 45.4163 1.32C45.3843 1.32 45.3603 1.32 45.3443 1.32H44.9123V1.008C46.3043 0.624 47.3123 0.288 47.9363 0L48.0323 0.0719991V7.08C49.0403 5.72 50.2083 5.04 51.5363 5.04C53.2643 5.04 54.1283 6.232 54.1283 8.616V13.104C54.1283 13.744 54.2083 14.208 54.3683 14.496C54.5283 14.784 54.9603 14.992 55.6643 15.12V15.408Z" fill="white"/>
<path d="M63.7858 8.328C63.4498 6.488 62.6017 5.568 61.2417 5.568C60.6817 5.568 60.2257 5.752 59.8737 6.12C59.5378 6.472 59.3698 6.84 59.3698 7.224C59.3698 7.848 59.7137 8.36 60.4017 8.76L62.8258 10.2C64.1538 11.064 64.8177 11.92 64.8177 12.768C64.8177 13.6 64.4898 14.288 63.8338 14.832C63.1777 15.36 62.4177 15.624 61.5537 15.624C61.1537 15.624 60.6498 15.544 60.0418 15.384C59.4498 15.208 59.0658 15.12 58.8898 15.12C58.7298 15.12 58.5617 15.248 58.3857 15.504H58.1458V11.976H58.4577C58.9537 14.088 59.9378 15.144 61.4098 15.144C62.7378 15.144 63.4017 14.544 63.4017 13.344C63.4017 12.704 63.0098 12.16 62.2257 11.712L60.9297 10.968C59.6497 10.216 58.8577 9.632 58.5537 9.216C58.2658 8.784 58.1217 8.312 58.1217 7.8C58.1217 7.016 58.4097 6.36 58.9857 5.832C59.5617 5.304 60.3218 5.04 61.2658 5.04C61.6338 5.04 62.3218 5.216 63.3298 5.568C63.4897 5.568 63.6418 5.456 63.7858 5.232H63.9777L64.0738 8.328H63.7858Z" fill="white"/>
<path d="M72.4954 5.88H70.0234V12.432C70.0234 13.792 70.4714 14.472 71.3674 14.472C71.8634 14.472 72.3194 14.208 72.7354 13.68L73.0234 13.92C72.4154 15.056 71.5354 15.624 70.3834 15.624C69.1354 15.624 68.5114 14.672 68.5114 12.768V5.88H67.1194L67.0234 5.736C67.0234 5.656 67.0954 5.576 67.2394 5.496C68.1354 4.984 68.7594 4.384 69.1114 3.696C69.4154 3.104 69.6554 2.648 69.8314 2.328C69.9594 2.328 70.0234 2.424 70.0234 2.616V5.352H72.4954V5.88Z" fill="white"/>
<path d="M84.6972 5.544C84.2012 5.624 83.8412 5.968 83.6172 6.576L80.3772 14.856C79.7212 16.648 79.1132 17.856 78.5532 18.48C77.9932 19.104 77.3292 19.416 76.5612 19.416C75.4892 19.416 74.9532 19.024 74.9532 18.24C74.9532 17.632 75.3212 17.328 76.0572 17.328C76.3132 17.328 76.5932 17.392 76.8972 17.52C77.2012 17.664 77.4252 17.736 77.5692 17.736C77.9052 17.736 78.3692 17.136 78.9612 15.936C79.5532 14.736 79.8492 13.992 79.8492 13.704C79.8492 13.416 79.3852 12.496 78.4572 10.944L75.6732 6.312C75.4172 5.912 74.9612 5.648 74.3052 5.52V5.256H78.9612V5.544C78.0332 5.544 77.5692 5.864 77.5692 6.504C77.5692 6.728 77.6572 6.992 77.8332 7.296L80.6172 12.096L82.2012 8.016C82.3452 7.568 82.4492 7.256 82.5132 7.08C82.6412 6.712 82.7052 6.512 82.7052 6.48C82.7052 5.856 82.3532 5.544 81.6492 5.544V5.256H84.6972V5.544Z" fill="white"/>
<path d="M86.7466 15.12C88.0266 15.12 88.6666 14.56 88.6666 13.44V2.688C88.6666 1.76 88.2826 1.296 87.5146 1.296C87.4986 1.296 87.4826 1.296 87.4666 1.296L86.6986 1.32V1.008C87.3386 0.848 88.4666 0.512 90.0826 0L90.1786 0.0479994V13.512C90.1786 14.584 90.8026 15.12 92.0506 15.12V15.408H86.7466V15.12Z" fill="white"/>
<path d="M103.076 11.88C102.756 12.936 102.164 13.824 101.3 14.544C100.436 15.264 99.4364 15.624 98.3004 15.624C97.0364 15.624 96.0124 15.176 95.2284 14.28C94.4604 13.384 94.0764 12.152 94.0764 10.584C94.0764 8.872 94.5244 7.52 95.4204 6.528C96.3324 5.536 97.4204 5.04 98.6844 5.04C99.8844 5.04 100.844 5.4 101.564 6.12C102.284 6.824 102.644 7.808 102.644 9.072H95.2524C95.2524 10.736 95.5804 12.024 96.2364 12.936C96.8924 13.832 97.7644 14.28 98.8524 14.28C100.372 14.28 101.66 13.424 102.716 11.712L103.076 11.88ZM100.748 8.544C100.476 6.688 99.6284 5.76 98.2044 5.76C96.6204 5.76 95.6604 6.688 95.3244 8.544H100.748Z" fill="white"/>
</svg>
